<?xml version="1.0" encoding="utf-8"?>
<!-- Generator: Adobe Illustrator 22.1.0, SVG Export Plug-In . SVG Version: 6.00 Build 0)  -->
<svg version="1.1" id="Layer_1" xmlns="http://www.w3.org/2000/svg" xmlns:xlink="http://www.w3.org/1999/xlink" x="0px" y="0px"
	 viewBox="0 0 250 50" enable-background="new 0 0 250 50" xml:space="preserve">
<path fill="#D15727" stroke="#000000" stroke-miterlimit="10" d="M38.6,47l-11-5.9c-0.6-0.3-1.3-0.3-1.9,0l-11.1,5.7
	c-1.5,0.8-3.2-0.5-2.9-2.1L14,32.5c0.1-0.6-0.1-1.3-0.6-1.8L4.6,22c-1.2-1.2-0.5-3.2,1.1-3.4l12.3-1.7c0.6-0.1,1.2-0.5,1.5-1.1
	l5.6-11.1c0.7-1.5,2.8-1.5,3.6,0l5.4,11.2c0.3,0.6,0.8,1,1.5,1.1L48,18.9c1.6,0.2,2.3,2.3,1.1,3.4l-9,8.6c-0.5,0.5-0.7,1.1-0.6,1.8
	l2,12.3C41.8,46.6,40,47.8,38.6,47z"/>
<path fill="#D15727" stroke="#000000" stroke-miterlimit="10" d="M126.5,3.6v37.3c-0.4,0-0.7,0-1.1,0.2l-11,5.7
	c-1.5,0.8-3.2-0.5-2.9-2.1l2.2-12.3c0.1-0.6-0.1-1.3-0.6-1.8l-8.8-8.8c-1.2-1.2-0.5-3.2,1.1-3.4l12.3-1.7c0.6-0.1,1.2-0.5,1.5-1.1
	l5.6-11.1C125.2,4,125.9,3.6,126.5,3.6z"/>
<path fill="#D15727" stroke="#000000" stroke-miterlimit="10" d="M87.9,47l-11-5.9c-0.6-0.3-1.3-0.3-1.9,0l-11.1,5.7
	c-1.5,0.8-3.2-0.5-2.9-2.1l2.2-12.2c0.1-0.6-0.1-1.3-0.6-1.8L54,22c-1.2-1.2-0.5-3.2,1.1-3.4l12.3-1.7c0.6-0.1,1.2-0.5,1.5-1.1
	l5.6-11.1c0.7-1.5,2.8-1.5,3.6,0l5.4,11.2c0.3,0.6,0.8,1,1.5,1.1l12.3,1.9c1.6,0.2,2.3,2.3,1.1,3.4l-9,8.6c-0.5,0.5-0.7,1.1-0.6,1.8
	l2,12.3C91.1,46.6,89.4,47.8,87.9,47z"/>
<path fill="#FFFFFF" stroke="#000000" stroke-miterlimit="10" d="M247.4,22.3c1.2-1.1,0.5-3.1-1.1-3.4L234,17
	c-0.6-0.1-1.2-0.5-1.5-1.1l-5.4-11.2c-0.4-0.8-1.2-1.2-1.9-1.1c-0.7,0-1.3,0.4-1.7,1.1l-5.6,11.1c-0.3,0.6-0.8,1-1.5,1.1l-12.3,1.7
	c-1.6,0.2-2.3,2.2-1.1,3.4l8.8,8.8c0.5,0.5,0.7,1.1,0.6,1.8l-2.2,12.3c-0.3,1.6,1.4,2.9,2.9,2.1l11.1-5.7c0.3-0.2,0.7-0.2,1.1-0.2
	c0.3,0,0.5,0.1,0.8,0.2l11,5.9c1.5,0.8,3.2-0.4,2.9-2.1l-2-12.3c-0.1-0.6,0.1-1.3,0.6-1.8L247.4,22.3z"/>
<path fill="#FFFFFF" stroke="#000000" stroke-miterlimit="10" d="M198,22.3c1.2-1.1,0.6-3.1-1.1-3.4L184.7,17
	c-0.6-0.1-1.2-0.5-1.5-1.1l-5.4-11.2c-0.4-0.8-1.2-1.2-1.9-1.1c-0.7,0-1.3,0.4-1.7,1.1l-5.6,11.1c-0.3,0.6-0.9,1-1.5,1.1l-12.3,1.7
	c-1.6,0.2-2.3,2.2-1.1,3.4l8.8,8.8c0.5,0.5,0.7,1.1,0.5,1.8l-2.2,12.3c-0.3,1.6,1.4,2.9,2.9,2.1l11.1-5.7c0.3-0.2,0.7-0.2,1.1-0.2
	c0.3,0,0.5,0.1,0.8,0.2l11,5.9c1.5,0.8,3.2-0.4,2.9-2.1l-2-12.3c-0.1-0.6,0.1-1.3,0.6-1.8L198,22.3z"/>
<path fill="#FFFFFF" stroke="#000000" stroke-miterlimit="10" d="M139.7,30.9c-0.5,0.5-0.7,1.1-0.6,1.8l2,12.3
	c0.3,1.6-1.4,2.8-2.9,2.1l-11-5.9c-0.2-0.1-0.5-0.2-0.8-0.2V3.6c0.8,0,1.5,0.3,1.9,1.1l5.4,11.2c0.3,0.6,0.8,1,1.5,1.1l12.3,1.9
	c1.6,0.3,2.3,2.3,1.1,3.4L139.7,30.9z"/>
</svg>
