<?xml version="1.0" encoding="utf-8"?>
<!-- Generator: Adobe Illustrator 22.1.0, SVG Export Plug-In . SVG Version: 6.00 Build 0)  -->
<svg version="1.1" id="Layer_1" xmlns="http://www.w3.org/2000/svg" xmlns:xlink="http://www.w3.org/1999/xlink" x="0px" y="0px"
	 viewBox="0 0 500 500" enable-background="new 0 0 500 500" xml:space="preserve">
<path fill-rule="evenodd" clip-rule="evenodd" d="M326.3,461.6l-0.5-44.4l0.3-211.5c0,0,0.5-21.5-5.2-36
	c-7.6-19.4-21.9-33.3-21.9-33.3s-4.8-4.9-7.4-10.3c-2.5-5.1-2.8-10.7-2.8-10.7l-0.6-12.5c0,0-3.1-1.8-12.4-1.8l-12.4-0.2l-12.4,0.2
	c-9.3,0-12.4,1.8-12.4,1.8l-0.6,12.5c0,0-0.3,5.6-2.8,10.7c-2.6,5.4-7.4,10.3-7.4,10.3s-14.3,13.8-21.9,33.3
	c-5.7,14.5-5.2,36-5.2,36l0.3,211.5l-0.5,44.4c0,0-0.3,8.2,0.5,16.2c0.4,3.5,1.2,6.9,1.9,9.7c0.9,3.6,5.8,5.8,5.8,5.8
	s5.1,2.4,12.4,3.6c12.9,2.1,26.6,3.1,42.1,3.1c13.8,0,29.1-0.9,42.1-3.1c7.3-1.2,12.4-3.6,12.4-3.6s4.9-2.2,5.8-5.8
	c0.7-2.8,1.6-6.2,1.9-9.7C326.6,469.8,326.3,461.6,326.3,461.6z"/>
<linearGradient id="SVGID_1_" gradientUnits="userSpaceOnUse" x1="238.7135" y1="94.7798" x2="288.3958" y2="94.7798">
	<stop  offset="2.453990e-02" style="stop-color:#061500"/>
	<stop  offset="0.1641" style="stop-color:#314727"/>
	<stop  offset="0.2866" style="stop-color:#4E713D"/>
	<stop  offset="0.3436" style="stop-color:#598245"/>
	<stop  offset="0.681" style="stop-color:#143816"/>
	<stop  offset="1" style="stop-color:#475442"/>
</linearGradient>
<path fill-rule="evenodd" clip-rule="evenodd" fill="url(#SVGID_1_)" d="M251.1,101.3c0,0,1.9-0.2,12.4-0.2
	c11.2,0,12.4,0.2,12.4,0.2c9.3,0,12.4,1.8,12.4,1.8L288,86.8l-24.5-0.3l-24.5,0.3l-0.4,16.4C238.7,103.1,241.8,101.3,251.1,101.3z"
	/>
<linearGradient id="SVGID_2_" gradientUnits="userSpaceOnUse" x1="263.5547" y1="497.3649" x2="263.5547" y2="134.415">
	<stop  offset="2.453990e-02" style="stop-color:#000000"/>
	<stop  offset="0.5079" style="stop-color:#070300"/>
	<stop  offset="1" style="stop-color:#1F1E16"/>
</linearGradient>
<path fill-rule="evenodd" clip-rule="evenodd" fill="url(#SVGID_2_)" d="M285.8,461.6l-0.5-44.4l0.3-211.5c0,0,0.5-21.5-5.2-36
	c-7.6-19.4-21.9-33.3-21.9-33.3s-0.7-0.8-1.8-2c-4.3,7.8-6,9.8-7.8,13.1c-2.2,3.9-6.1,12.8-7.7,16c0,0,4.5,14,5,21.7
	c2.4,48.1,1.1,156.3,1.1,156.3s1,122.5,1.1,126.9c0.5,30.9,9.7,29.6,16.7,28.5c7.3-1.2,12.4-3.6,12.4-3.6s4.9-2.2,5.8-5.8
	c0.7-2.8,1.6-6.2,1.9-9.7C286.1,469.8,285.8,461.6,285.8,461.6z"/>
<linearGradient id="SVGID_3_" gradientUnits="userSpaceOnUse" x1="263.5547" y1="475.965" x2="263.5547" y2="155.1522">
	<stop  offset="2.453990e-02" style="stop-color:#000000"/>
	<stop  offset="0.4254" style="stop-color:#222322"/>
	<stop  offset="0.8177" style="stop-color:#454946"/>
	<stop  offset="1" style="stop-color:#545955"/>
</linearGradient>
<path fill-rule="evenodd" clip-rule="evenodd" fill="url(#SVGID_3_)" stroke="#000000" d="M246.5,174.6
	c5.9-13.5,12.6-19.5,12.6-19.5s8.9,2.1,15.2,6.6c7.5,5.5,11.2,11,11.2,11V476h-44l0.7-274.5C242.3,201.5,242.7,183.3,246.5,174.6z"
	/>
<linearGradient id="SVGID_4_" gradientUnits="userSpaceOnUse" x1="263.5547" y1="498.6245" x2="263.5547" y2="86.5054">
	<stop  offset="2.453990e-02" style="stop-color:#000000"/>
	<stop  offset="0.1835" style="stop-color:#151112"/>
	<stop  offset="0.5892" style="stop-color:#615E5F"/>
	<stop  offset="0.8697" style="stop-color:#9D9D9E"/>
	<stop  offset="1" style="stop-color:#BABCBD"/>
</linearGradient>
<path fill-rule="evenodd" clip-rule="evenodd" fill="url(#SVGID_4_)" d="M282.1,86.5l-0.4,16.5l-0.8,12.6c0,0-0.3,5.6-2.8,10.7
	c-2.6,5.4-7.4,10.3-7.4,10.3s-14.3,13.8-21.9,33.3c-5.7,14.5-5.2,36-5.2,36l0.3,211.5l-0.5,44.4c0,0-0.3,8.2,0.5,16.2
	c0.4,3.5,1.2,6.9,1.9,9.7c0.9,3.6,5.8,5.8,5.8,5.8s5.1,2.4,12.4,3.6c4,0.7,9.5,1.1,15.2,1.5c0-0.1,0-0.2,0-0.3
	c-4.2-0.3-8.1-0.7-11.1-1.2c-7.3-1.2-12.4-3.6-12.4-3.6s-4.9-2.2-5.8-5.8c-0.7-2.8-1.6-6.2-1.9-9.7c-0.8-8-0.5-16.2-0.5-16.2
	l0.5-44.4l-0.3-211.5c0,0-0.5-21.5,5.2-36c7.6-19.4,21.9-33.3,21.9-33.3s2.9-4.8,5.5-10.2c2.5-5.1,2.4-10.8,2.4-10.8l0.3-13.4V100
	l0.5-13.5L282.1,86.5z"/>
<linearGradient id="SVGID_5_" gradientUnits="userSpaceOnUse" x1="223.1269" y1="94.347" x2="272.8082" y2="94.347">
	<stop  offset="2.453990e-02" style="stop-color:#373C2D"/>
	<stop  offset="0.1151" style="stop-color:#4B553F"/>
	<stop  offset="0.2707" style="stop-color:#6E845C"/>
	<stop  offset="0.3436" style="stop-color:#7B9768"/>
	<stop  offset="0.681" style="stop-color:#425638"/>
	<stop  offset="1" style="stop-color:#697060"/>
</linearGradient>
<path fill="url(#SVGID_5_)" d="M270.6,102.2c-0.1-6-0.2-11.9-0.2-15.6l-13.3-0.2c-0.2,2.8-0.5,8.5-0.6,14.7l3.9,0.1
	C265.5,101.2,268.7,101.7,270.6,102.2z"/>
<linearGradient id="SVGID_6_" gradientUnits="userSpaceOnUse" x1="249.3529" y1="94.0797" x2="299.0352" y2="94.0797">
	<stop  offset="2.453990e-02" style="stop-color:#373C2D"/>
	<stop  offset="0.1151" style="stop-color:#4B553F"/>
	<stop  offset="0.2707" style="stop-color:#6E845C"/>
	<stop  offset="0.3436" style="stop-color:#7B9768"/>
	<stop  offset="0.681" style="stop-color:#425638"/>
	<stop  offset="1" style="stop-color:#697060"/>
</linearGradient>
<path fill="url(#SVGID_6_)" d="M255.5,86.7c0.1,3.9,0.1,9.4,0.1,14.9c1.7-0.2,3.7-0.3,6.2-0.3l9.8-0.2V86.5L255.5,86.7z"/>
<path fill-rule="evenodd" clip-rule="evenodd" fill="#1F1E16" d="M252.8,101.1c-0.2,8.6-0.2,18.1,0.7,22c0.6,2.5,6.3,4.7,8.4,5.8
	c3.2,1.7,12.6,5.4,12.6,5.4s-6.2-10.4-6.7-14.3c-0.4-3.9-0.7-10.9-0.9-17.8c-1.9-0.5-5.1-1-10.2-1L252.8,101.1z"/>
<path fill-rule="evenodd" clip-rule="evenodd" fill="#545955" d="M256.7,101.6c0,6.7-0.2,13.3-0.6,17.1c-0.4,3.9-2.5,6.9-1.2,8.6
	c1.4,1.8,5.8,0.3,9-1.4c2-1.1,8.7-4,8.7-4v-20.9l-9.8,0.2C260.4,101.3,258.3,101.4,256.7,101.6z"/>
<linearGradient id="SVGID_7_" gradientUnits="userSpaceOnUse" x1="238.7131" y1="45.1587" x2="288.3961" y2="45.1587">
	<stop  offset="0" style="stop-color:#6D2E31"/>
	<stop  offset="0.135" style="stop-color:#B03737"/>
	<stop  offset="0.4601" style="stop-color:#551F21"/>
	<stop  offset="0.6748" style="stop-color:#B03737"/>
	<stop  offset="1" style="stop-color:#531E20"/>
</linearGradient>
<path fill-rule="evenodd" clip-rule="evenodd" fill="url(#SVGID_7_)" d="M287.6,28.2c0,0,0.5-0.4,0.6-0.8c0.2-0.6,0.2-1.2,0.2-1.2
	s0-11.2-0.3-12.6c-0.2-1.1-0.9-1.2-0.9-1.2s-0.5-0.2-0.7-0.7c-0.2-0.5-0.2-1.4-0.2-1.4l0.2-2.7c0,0,0.7-4.7-2.5-5.7
	c-1.3-0.4-2.5-0.8-4.2-0.9c-6-0.5-11.2-1-16.2-1c-6.4,0-10.2,0.6-16.2,1c-1.7,0.1-2.9,0.5-4.2,0.9c-3.3,1-2.5,5.7-2.5,5.7l0.2,2.7
	c0,0,0,0.9-0.2,1.4c-0.2,0.5-0.7,0.7-0.7,0.7s-0.7,0.1-0.9,1.2c-0.3,1.4-0.3,12.6-0.3,12.6s0,0.6,0.2,1.2c0.1,0.3,0.6,0.8,0.6,0.8
	s0.4,0.5,0.5,1.5c0.1,1.3-1.1,60.7-1.1,60.7s16-1,25.4-1c8.9,0,23.9,1,23.9,1s-1.2-59.4-1.1-60.7C287.2,28.7,287.6,28.2,287.6,28.2z
	"/>
<path fill-rule="evenodd" clip-rule="evenodd" fill="#6D2E31" d="M240.5,12c0,0,10.4-0.9,23.3-0.9C276,11,286.6,12,286.6,12
	l-0.3-1.2c0,0-12.3-1.2-22.5-1.2c-9.6,0-23,1.2-23,1.2L240.5,12z"/>
<path fill-rule="evenodd" clip-rule="evenodd" fill="#6D2E31" d="M239.4,28.2l0.3,0.5c15.3-1.5,15.2-1.7,24-1.8
	c9.8-0.1,23.8,1.4,23.8,1.4l0.5-0.5l0.3-0.6c0,0-13.1-2-24.7-1.7c-10.9,0.2-24.7,2.2-24.7,2.2L239.4,28.2z"/>
<linearGradient id="SVGID_8_" gradientUnits="userSpaceOnUse" x1="263.5547" y1="498.5785" x2="263.5547" y2="90.3174">
	<stop  offset="2.453990e-02" style="stop-color:#000000"/>
	<stop  offset="0.1835" style="stop-color:#151112"/>
	<stop  offset="0.5892" style="stop-color:#615E5F"/>
	<stop  offset="0.8697" style="stop-color:#9D9D9E"/>
	<stop  offset="1" style="stop-color:#BABCBD"/>
</linearGradient>
<path fill-rule="evenodd" clip-rule="evenodd" fill="url(#SVGID_8_)" d="M270.7,493.5c0,0,4.9-2.2,5.8-5.8c0.7-2.8,1.6-6.2,1.9-9.7
	c0.8-8,0.5-16.2,0.5-16.2l-0.5-44.4l0.3-211.5c0,0,0.5-21.5-5.2-36c-7.6-19.4-21.9-33.3-21.9-33.3s-2.9-4.8-5.5-10.2
	c-2.5-5.1-2.4-10.8-2.4-10.8l0.2-25.3l0.7,0l0.9,25.3c0,0,0.3,5.6,2.8,10.7c2.6,5.4,7.4,10.3,7.4,10.3s14.3,13.8,21.9,33.3
	c5.7,14.5,5.2,36,5.2,36l-0.3,211.5l0.5,44.4c0,0,0.3,8.2-0.5,16.2c-0.4,3.5-1.2,6.9-1.9,9.7c-0.9,3.6-5.8,5.8-5.8,5.8
	s-5.1,2.4-12.4,3.6c-4,0.7-9.5,1.1-15.2,1.5c0-0.1,0-0.2,0-0.3c4.2-0.3,8.1-0.7,11.1-1.2C265.6,495.9,270.7,493.5,270.7,493.5z"/>
<linearGradient id="SVGID_9_" gradientUnits="userSpaceOnUse" x1="203.8947" y1="271.2311" x2="323.2146" y2="271.2311">
	<stop  offset="2.453990e-02" style="stop-color:#ECDDBE"/>
	<stop  offset="6.624873e-02" style="stop-color:#BBAC8C"/>
	<stop  offset="9.202450e-02" style="stop-color:#A49778"/>
	<stop  offset="0.4294" style="stop-color:#ECDDBE"/>
	<stop  offset="0.7055" style="stop-color:#A49778"/>
	<stop  offset="1" style="stop-color:#BABCBD"/>
</linearGradient>
<path fill-rule="evenodd" clip-rule="evenodd" fill="url(#SVGID_9_)" d="M203.9,202c0,0,44.9-1.1,59.9-1.1c14.9,0,59.5,1.3,59.5,1.3
	l-0.2,136c-17,3.1-44.7,3.4-59.5,3.4c-15-0.1-46.9-0.1-59.6-3.9V202z"/>
</svg>
