<?xml version="1.0" encoding="utf-8"?>
<!-- Generator: Adobe Illustrator 22.1.0, SVG Export Plug-In . SVG Version: 6.00 Build 0)  -->
<svg version="1.1" id="Layer_1" xmlns="http://www.w3.org/2000/svg" xmlns:xlink="http://www.w3.org/1999/xlink" x="0px" y="0px"
	 viewBox="0 0 32 32" style="enable-background:new 0 0 32 32;" xml:space="preserve">
<style type="text/css">
	.st0{fill:none;}
	.st1{fill:#F37221;}
</style>
<g>
	<title>background</title>
	<rect id="canvas_background" x="-1" y="-1" class="st0" width="582" height="402"/>
</g>
<g>
	<title>Layer 1</title>
	<path id="svg_1" class="st1" d="M21.8,17.4l1.9-5.6c0.1-0.3,0-0.4-0.1-0.5c-0.2-0.3-0.6-0.3-0.7-0.3l-10.6,0l-0.3-1.4
		C12,9.3,11.8,9,11.3,9h-3C8,9,7.9,9.3,7.9,9.6v0.8c0,0.3,0.1,0.2,0.4,0.2h2.5l1.9,8.2c-0.3,0.3-0.5,0.8-0.5,1.3
		c0,1,0.8,1.8,1.8,1.8c0.9,0,1.6-0.9,1.7-1.4h3.7c0.1,0.5,0.7,1.5,1.7,1.5c1,0,1.8-0.8,1.8-1.8c0-1-0.6-1.9-1.7-1.9
		c-0.5,0-1.1,0.1-1.3,0.6h-4.6c-0.3-0.5-0.8-0.7-1.2-0.7l-0.1-0.3h7C21.6,17.8,21.7,17.7,21.8,17.4z M13.4,20.1
		c0-0.4,0.3-0.7,0.7-0.7c0.4,0,0.7,0.3,0.7,0.7c0,0.4-0.3,0.7-0.7,0.7C13.7,20.8,13.4,20.5,13.4,20.1z M21.3,20.8
		c-0.4,0-0.7-0.3-0.7-0.7c0-0.4,0.3-0.7,0.7-0.7c0.4,0,0.7,0.3,0.7,0.7C22,20.5,21.7,20.8,21.3,20.8z"/>
</g>
</svg>
