<svg width="30" height="30" xmlns="http://www.w3.org/2000/svg">

 <g>
  <title>background</title>
  <rect fill="none" id="canvas_background" height="32" width="32" y="-1" x="-1"/>
 </g>
 <g>
  <title>Layer 1</title>
  <path fill="#000000" stroke="null" id="svg_1" d="m28.639248,16.207947q0,2.678326 -1.047294,5.116289t-2.815676,4.206345t-4.206345,2.815676t-5.116289,1.047294t-5.116289,-1.047294t-4.206345,-2.815676t-2.815676,-4.206345t-1.047294,-5.116289q0,-3.124714 1.382085,-5.888884t3.888723,-4.635564q0.738257,-0.5494 1.639616,-0.429219t1.433591,0.858438q0.5494,0.721088 0.420635,1.622448t-0.849853,1.45076q-1.682538,1.270488 -2.601067,3.107545t-0.918528,3.914477q0,1.785551 0.695335,3.407998t1.879979,2.807092t2.807092,1.879979t3.407998,0.695335t3.407998,-0.695335t2.807092,-1.879979t1.879979,-2.807092t0.695335,-3.407998q0,-2.07742 -0.918528,-3.914477t-2.601067,-3.107545q-0.721088,-0.5494 -0.849853,-1.45076t0.420635,-1.622448q0.532231,-0.738257 1.442176,-0.858438t1.631032,0.429219q2.506638,1.871394 3.888723,4.635564t1.382085,5.888884zm-10.988004,-13.185605l0,10.988004q0,0.892775 -0.652413,1.545188t-1.545188,0.652413t-1.545188,-0.652413t-0.652413,-1.545188l0,-10.988004q0,-0.892775 0.652413,-1.545188t1.545188,-0.652413t1.545188,0.652413t0.652413,1.545188z"/>
 </g>
</svg>