<svg width="20" height="20" xmlns="http://www.w3.org/2000/svg">

 <g>
  <title>background</title>
  <rect fill="none" id="canvas_background" height="22" width="22" y="-1" x="-1"/>
 </g>
 <g>
  <title>Layer 1</title>
  <path stroke="null" id="svg_1" fill-rule="evenodd" fill="#333333" d="m4.848647,5.648141l0,2.755564l-1.180962,0c-0.869993,0 -1.574689,0.704652 -1.574689,1.574645l0,7.873269c0,0.86995 0.704695,1.574559 1.574689,1.574559l12.597075,0c0.86995,0 1.574775,-0.704608 1.574775,-1.574559l0,-7.873269c0,-0.869993 -0.704825,-1.574645 -1.574775,-1.574645l-1.180876,0l0,-2.755564c0,-2.826406 -2.291299,-5.117575 -5.117619,-5.117575s-5.117619,2.291126 -5.117619,5.117575zm1.968328,2.755564l0,-2.755564c0,-1.739944 1.40926,-3.149334 3.149247,-3.149334c1.739987,0 3.149334,1.40939 3.149334,3.149334l0,2.755564l-6.298581,0zm1.574602,4.330296c0,-0.86995 0.704652,-1.574602 1.574645,-1.574602s1.574602,0.704652 1.574602,1.574602c0,0.555125 -0.287441,1.043308 -0.720337,1.322776c0,0 0.153816,0.929224 0.326784,2.023399c0,0.32661 -0.263741,0.590351 -0.590524,0.590351l-1.181049,0c-0.32674,0 -0.590438,-0.263741 -0.590438,-0.590351l0.326784,-2.023399c-0.432939,-0.279469 -0.720467,-0.767695 -0.720467,-1.322776z" clip-rule="evenodd"/>
 </g>
</svg>