<svg width="250.00000000000003" height="50" xmlns="http://www.w3.org/2000/svg">

 <g>
  <title>background</title>
  <rect fill="none" id="canvas_background" height="52" width="252" y="-1" x="-1"/>
 </g>
 <g>
  <title>Layer 1</title>
  <rect id="svg_1" width="50" height="50" fill="none"/>
  <polygon id="svg_2" stroke-width="2" stroke-miterlimit="10" stroke="#000000" points="25,3.553 30.695,18.321 46.5,19.173   34.214,29.152 38.287,44.447 25,35.848 11.712,44.447 15.786,29.152 3.5,19.173 19.305,18.321 " fill="none"/>
  <rect x="50.53314" y="0" id="svg_5" width="50" height="50" fill="none"/>
  <polygon id="svg_6" stroke-width="2" stroke-miterlimit="10" stroke="#000000" points="75.53307473659515,3.552999973297119 81.22802865505219,18.320999145507812 97.0330137014389,19.17300033569336 84.74701821804047,29.152000427246094 88.82001626491547,44.446998596191406 75.53307473659515,35.847999572753906 62.24517571926117,44.446998596191406 66.31916177272797,29.152000427246094 54.03322732448578,19.17300033569336 69.83812844753265,18.320999145507812 " fill="none"/>
  <rect x="149.04078" y="0" id="svg_7" width="50" height="50" fill="none"/>
  <polygon id="svg_8" stroke-width="2" stroke-miterlimit="10" stroke="#000000" points="174.04056417942047,3.552999973297119 179.73551046848297,18.320999145507812 195.54050314426422,19.17300033569336 183.25450766086578,29.152000427246094 187.32750570774078,44.446998596191406 174.04056417942047,35.847999572753906 160.75266134738922,44.446998596191406 164.82665121555328,29.152000427246094 152.54070150852203,19.17300033569336 168.34561789035797,18.320999145507812 " fill="none"/>
  <rect x="199.57392" y="0" id="svg_9" width="50" height="50" fill="none"/>
  <polygon id="svg_10" stroke-width="2" stroke-miterlimit="10" stroke="#000000" points="224.57376730442047,3.552999973297119 230.26892721652985,18.320999145507812 246.0744844675064,19.17300033569336 233.78804647922516,29.152000427246094 237.86119711399078,44.446998596191406 224.57376730442047,35.847999572753906 211.28568136692047,44.446998596191406 215.35965597629547,29.152000427246094 203.07372152805328,19.17300033569336 218.87862265110016,18.320999145507812 " fill="none"/>
  <rect x="99.78696" y="0" id="svg_11" width="50" height="50" fill="none"/>
  <polygon id="svg_12" stroke-width="2" stroke-miterlimit="10" stroke="#000000" points="124.7866884469986,3.552999973297119 130.4816347360611,18.320999145507812 146.28662741184235,19.17300033569336 134.0006319284439,29.152000427246094 138.0736299753189,44.446998596191406 124.7866884469986,35.847999572753906 111.49878561496735,44.446998596191406 115.57277548313141,29.152000427246094 103.28682577610016,19.17300033569336 119.0917421579361,18.320999145507812 " fill="none"/>
 </g>
</svg>