<?xml version="1.0" encoding="utf-8"?>
<!-- Generator: Adobe Illustrator 22.1.0, SVG Export Plug-In . SVG Version: 6.00 Build 0)  -->
<svg version="1.1" id="Layer_1" xmlns="http://www.w3.org/2000/svg" xmlns:xlink="http://www.w3.org/1999/xlink" x="0px" y="0px"
	 viewBox="0 0 24 24" style="enable-background:new 0 0 24 24;" xml:space="preserve">
<style type="text/css">
	.st0{fill:none;}
	.st1{fill:#FF7110;}
</style>
<g>
	<title>background</title>
	<rect id="canvas_background" x="-1" y="-1" class="st0" width="582" height="402"/>
</g>
<g>
	<title>Layer 1</title>
	<path id="svg_3" class="st1" d="M14.5,9.2c0,1.4-1.1,2.5-2.5,2.5s-2.5-1.1-2.5-2.5s1.1-2.5,2.5-2.5S14.5,7.8,14.5,9.2z"/>
	<path id="svg_4" class="st1" d="M12,11.2c-0.6,0-1.3,0.1-1.8,0.4c-1.5,0.6-2.5,2-2.7,3.7c0,0.6,0.4,1,1,1h7c0.6,0,1-0.5,1-1
		c-0.2-1.6-1.2-3-2.7-3.7C13.3,11.4,12.6,11.2,12,11.2z"/>
</g>
</svg>
