<svg width="50.00000000000001" height="50.00000000000001" xmlns="http://www.w3.org/2000/svg">

 <g>
  <title>background</title>
  <rect fill="none" id="canvas_background" height="52" width="52" y="-1" x="-1"/>
 </g>
 <g>
  <title>Layer 1</title>
  <path stroke="null" id="svg_1" fill="#d35500" d="m49.118752,24.635977c0,13.301581 -10.791084,24.092665 -24.092665,24.092665s-24.092665,-10.791084 -24.092665,-24.092665s10.791084,-24.092665 24.092665,-24.092665s24.092665,10.791084 24.092665,24.092665z"/>
  <path stroke="#FFFFFF" id="svg_4" stroke-width="2" stroke-miterlimit="10" stroke-linejoin="round" fill="none" d="m12.653844,35.061139l-0.593834,5.344504l5.344504,-0.593834l17.102411,-17.102411l-4.75067,-4.75067l-17.102411,17.102411z"/>
  <path stroke="#FFFFFF" id="svg_6" stroke-width="2" stroke-miterlimit="10" stroke-linejoin="round" fill="none" d="m36.267975,11.70204c-0.368421,0 -0.736842,0.140799 -1.022071,0.422398l-2.448217,2.628256l4.753819,4.693314l2.685908,-2.405323c0.570458,-0.563198 0.570458,-1.466661 0,-2.018125l-2.935483,-2.898121c-0.308998,-0.281599 -0.677419,-0.422398 -1.033956,-0.422398l0,0z"/>
 </g>
</svg>